# xmcd
#
# Track frame offsets: 
#        150
#        18055
#        38275
#        53545
#        70270
#        84685
#        101832
#        122797
#        136297
#        154372
#        170110
#        183850
#        200785
#        213160
#        232250
#        249932
#        268732
#        293155
#        308287
#        324687
#
# Disc length: 4561 seconds
#
# Revision: 4
# Processed by: cddbd v1.5.1PL0 Copyright (c) Steve Scherf et al.
# Submitted via: ExactAudioCopy v0.95a5
#
DISCID=1a11cf14
DTITLE=Bonnie Raitt - The Bonnie Raitt Collection
DYEAR=1990
DGENRE=Blues - Rock
TTITLE0=Finest Lovin' Man
TTITLE1=Give It Up Or Let Me Go
TTITLE2=Women Be Wise
TTITLE3=Under The Falling Sky
TTITLE4=Love Me Like A Man
TTITLE5=Love Has No Pride
TTITLE6=I Feel The Same
TTITLE7=Guilty
TTITLE8=Angel From Montgomery
TTITLE9=What Is Success
TTITLE10=My First Night Alone Without You
TTITLE11=Sugar Mama
TTITLE12=Louise
TTITLE13=About To Make Me Leave Home
TTITLE14=Runaway
TTITLE15=The Glow
TTITLE16=(Goin') Wild For You Baby
TTITLE17=Willya Wontcha
TTITLE18=True Love Is Hard To Find
TTITLE19=No Way To Treat A Lady
EXTD=
EXTT0=
EXTT1=
EXTT2=
EXTT3=
EXTT4=
EXTT5=
EXTT6=
EXTT7=
EXTT8=
EXTT9=
EXTT10=
EXTT11=
EXTT12=
EXTT13=
EXTT14=
EXTT15=
EXTT16=
EXTT17=
EXTT18=
EXTT19=
PLAYORDER=
